<svg xmlns="http://www.w3.org/2000/svg" xmlns:svg="http://www.w3.org/2000/svg" xmlns:xlink="http://www.w3.org/1999/xlink" version="1.0" height="855pt" width="1410.1499927520751pt" viewBox="10 277 1418.1499927520751 861" ><defs><style type="text/css">
            @font-face {
                font-family: 'noto_regular';
                src: url('https://app.creately.com/diagram/assets/fonts/noto/noto-regular.woff') format('woff'),
                     url('https://app.creately.com/diagram/assets/fonts/noto/noto-regular.woff2') format('woff2');
                font-weight: normal;
                font-style: normal;
            }
        p {
            margin: 0;
        }
        </style></defs><defs><style>
            span{ display: inline-block; }
        </style></defs><g id="1bvne8gci2"><g transform="translate(645 890)"><rect x="0" y="0" width="100" height="50" fill="rgba(255,255,255,1)" stroke="#75c19b" stroke-width="1.5" stroke-linecap="round" stroke-linejoin="round"/></g><g transform="translate(654, 897.5) rotate(0, 41, 17.5)" width="82" height="35"><text text-decoration="none" x="3" fill="rgb(75, 75, 75)" font-size="10pt" font-family="Lato"  y="14">Tourist&#160;</text><text text-decoration="none" x="48" fill="rgb(75, 75, 75)" font-size="10pt" font-family="Lato"  y="14">Place</text><text text-decoration="none" x="79" fill="rgb(75, 75, 75)" font-size="10pt" font-family="Lato"  y="14"></text><text text-decoration="none" x="41" fill="#4b4b4b" font-size="10pt" font-family="noto_regular"  y="36"></text></g></g><g id="21x68divxj"><g transform="translate(645 575)"><rect x="0" y="0" width="100" height="50" fill="rgba(255,255,255,1)" stroke="#75c19b" stroke-width="1.5" stroke-linecap="round" stroke-linejoin="round"/></g><g transform="translate(682, 590.5) rotate(0, 13, 9.5)" width="26" height="19"><text text-decoration="none" x="1.5" fill="rgb(75, 75, 75)" font-size="10pt" font-family="Lato"  y="17">City</text><text text-decoration="none" x="24.5" fill="#4b4b4b" font-size="10pt" font-family="noto_regular"  y="17"></text></g></g><g id="b6689cv0id"><g transform="translate(260 730)"><rect x="0" y="0" width="100" height="50" fill="rgba(255,255,255,1)" stroke="#75c19b" stroke-width="1.5" stroke-linecap="round" stroke-linejoin="round"/></g><g transform="translate(283, 745.5) rotate(0, 27, 9.5)" width="54" height="19"><text text-decoration="none" x="2" fill="rgb(75, 75, 75)" font-size="10pt" font-family="Lato"  y="17">Hospital</text><text text-decoration="none" x="52" fill="#4b4b4b" font-size="10pt" font-family="noto_regular"  y="17"></text></g></g><g id="bzjmynubcr"><g transform="translate(1029.95 405)"><rect x="0" y="0" width="100" height="50" fill="rgba(255,255,255,1)" stroke="#75c19b" stroke-width="1.5" stroke-linecap="round" stroke-linejoin="round"/></g><g transform="translate(1062.45, 420.5) rotate(0, 17.5, 9.5)" width="35" height="19"><text text-decoration="none" x="1" fill="rgb(75, 75, 75)" font-size="10pt" font-family="Lato"  y="17">Hotel</text><text text-decoration="none" x="34" fill="#4b4b4b" font-size="10pt" font-family="noto_regular"  y="17"></text></g></g><g id="24cssrhn45"><g transform="translate(215 465)"><rect x="0" y="0" width="100" height="50" fill="rgba(255,255,255,1)" stroke="#75c19b" stroke-width="1.5" stroke-linecap="round" stroke-linejoin="round"/></g><g transform="translate(237.5, 480.5) rotate(0, 27.5, 9.5)" width="55" height="19"><text text-decoration="none" x="1.5" fill="rgb(75, 75, 75)" font-size="10pt" font-family="Lato"  y="17">Location</text><text text-decoration="none" x="53.5" fill="#4b4b4b" font-size="10pt" font-family="noto_regular"  y="17"></text></g></g><g id="1f9kk9e2ut"><g transform="translate(210 995)"><rect x="0" y="0" width="100" height="50" fill="rgba(255,255,255,1)" stroke="#75c19b" stroke-width="1.5" stroke-linecap="round" stroke-linejoin="round"/></g><g transform="translate(215.5, 1002.5) rotate(0, 44.5, 17.5)" width="89" height="35"><text text-decoration="none" x="23.5" fill="rgb(75, 75, 75)" font-size="10pt" font-family="Lato"  y="14">Tourist&#160;</text><text text-decoration="none" x="2.5" fill="rgb(75, 75, 75)" font-size="10pt" font-family="Lato"  y="36">Location&#160;</text><text text-decoration="none" x="57.5" fill="rgb(75, 75, 75)" font-size="10pt" font-family="Lato"  y="36">Type</text><text text-decoration="none" x="86.5" fill="#4b4b4b" font-size="10pt" font-family="noto_regular"  y="36"></text></g></g><g id="c2v4xf8vu3"><g transform="translate(975 730)"><rect x="0" y="0" width="100" height="50" fill="rgba(255,255,255,1)" stroke="#75c19b" stroke-width="1.5" stroke-linecap="round" stroke-linejoin="round"/></g><g transform="translate(980.5, 745.5) rotate(0, 44.5, 9.5)" width="89" height="19"><text text-decoration="none" x="4" fill="rgb(75, 75, 75)" font-size="10pt" font-family="Lato"  y="17">Police&#160;</text><text text-decoration="none" x="42" fill="rgb(75, 75, 75)" font-size="10pt" font-family="Lato"  y="17">Station</text><text text-decoration="none" x="85" fill="#4b4b4b" font-size="10pt" font-family="noto_regular"  y="17"></text></g></g><g id="2nbn5xpvuq"><g transform="translate(15 905)"><ellipse cx="60.04999876022339" cy="34.99999940395355" rx="60.04999876022339" ry="34.99999940395355" fill="rgba(255,255,255,1)" stroke="#f6902a" stroke-width="1.5" stroke-linecap="round" stroke-linejoin="round"/></g><g transform="translate(54.04999876022339, 930.4999994039536) rotate(0, 21, 9.5)" width="42" height="19"><text text-decoration="underline" x="0.5" fill="rgb(75, 75, 75)" font-size="10pt" font-family="Lato"  y="17">TypeId</text><text text-decoration="none" x="41.5" fill="#4b4b4b" font-size="10pt" font-family="noto_regular"  y="17"></text></g></g><g id="11js5bz6j8"><g transform="translate(40 1085)"><ellipse cx="50" cy="25" rx="50" ry="25" fill="rgba(255,255,255,1)" stroke="#f6902a" stroke-width="1.5" stroke-linecap="round" stroke-linejoin="round"/></g><g transform="translate(53.5, 1100.5) rotate(0, 36.5, 9.5)" width="73" height="19"><text text-decoration="none" x="2.5" fill="rgb(75, 75, 75)" font-size="10pt" font-family="Lato"  y="17">Type&#160;</text><text text-decoration="none" x="34.5" fill="rgb(75, 75, 75)" font-size="10pt" font-family="Lato"  y="17">Name</text><text text-decoration="none" x="70.5" fill="#4b4b4b" font-size="10pt" font-family="noto_regular"  y="17"></text></g></g><g id="1gnswfx41x"><g><path d="M 260,1055 L 120,1130" fill="none" stroke="#a0a0a0" stroke-width="1.5" stroke-linecap="round" stroke-linejoin="round"/></g></g><g id="pvwv7uwbof"><g><path d="M 260,995 L 135,940" fill="none" stroke="#a0a0a0" stroke-width="1.5" stroke-linecap="round" stroke-linejoin="round"/></g></g><g id="ahnogpoowb"><g transform="translate(1275.05 380.05)"><ellipse cx="75.0499963760376" cy="50" rx="75.0499963760376" ry="50" fill="rgba(255,255,255,1)" stroke="#f6902a" stroke-width="1.5" stroke-linecap="round" stroke-linejoin="round"/></g><g transform="translate(1324.5999963760376, 420.55) rotate(0, 25.5, 9.5)" width="51" height="19"><text text-decoration="underline" x="1.5" fill="rgb(75, 75, 75)" font-size="10pt" font-family="Lato"  y="17">Hotel&#160;</text><text text-decoration="underline" x="37.5" fill="rgb(75, 75, 75)" font-size="10pt" font-family="Lato"  y="17">Id</text><text text-decoration="none" x="49.5" fill="#4b4b4b" font-size="10pt" font-family="noto_regular"  y="17"></text></g></g><g id="eqbzhwydyt"><g transform="translate(994.95 280)"><ellipse cx="50" cy="25" rx="50" ry="25" fill="rgba(255,255,255,1)" stroke="#f6902a" stroke-width="1.5" stroke-linecap="round" stroke-linejoin="round"/></g><g transform="translate(1025.45, 295.5) rotate(0, 19.5, 9.5)" width="39" height="19"><text text-decoration="none" x="1.5" fill="rgb(75, 75, 75)" font-size="10pt" font-family="Lato"  y="17">Name</text><text text-decoration="none" x="37.5" fill="#4b4b4b" font-size="10pt" font-family="noto_regular"  y="17"></text></g></g><g id="2f2jx35qy8"><g><path d="M 1275.05,430.05 L 1129.95,430" fill="none" stroke="#a0a0a0" stroke-width="1.5" stroke-linecap="round" stroke-linejoin="round"/></g></g><g id="8tz01tcc73"><g><path d="M 1059.95,330 L 1079.95,405" fill="none" stroke="#a0a0a0" stroke-width="1.5" stroke-linecap="round" stroke-linejoin="round"/></g></g><g id="15b5240244"><g transform="translate(325 375)"><ellipse cx="50" cy="25" rx="50" ry="25" fill="rgba(255,255,255,1)" stroke="#f6902a" stroke-width="1.5" stroke-linecap="round" stroke-linejoin="round"/></g><g transform="translate(326, 390.5) rotate(0, 49, 9.5)" width="98" height="19"><text text-decoration="none" x="3.5" fill="rgb(75, 75, 75)" font-size="10pt" font-family="Lato"  y="17">Location&#160;</text><text text-decoration="none" x="58.5" fill="rgb(75, 75, 75)" font-size="10pt" font-family="Lato"  y="17">Name</text><text text-decoration="none" x="94.5" fill="#4b4b4b" font-size="10pt" font-family="noto_regular"  y="17"></text></g></g><g id="2g9txhlv8h"><g transform="translate(65.1 329.95)"><ellipse cx="80.05000352859497" cy="42.55000650882721" rx="80.05000352859497" ry="42.55000650882721" fill="rgba(255,255,255,1)" stroke="#f6902a" stroke-width="1.5" stroke-linecap="round" stroke-linejoin="round"/></g><g transform="translate(109.65000352859497, 363.0000065088272) rotate(0, 35.5, 9.5)" width="71" height="19"><text text-decoration="underline" x="2" fill="rgb(75, 75, 75)" font-size="10pt" font-family="Lato"  y="17">Location&#160;</text><text text-decoration="underline" x="57" fill="rgb(75, 75, 75)" font-size="10pt" font-family="Lato"  y="17">Id</text><text text-decoration="none" x="69" fill="#4b4b4b" font-size="10pt" font-family="noto_regular"  y="17"></text></g></g><g id="5ncyg4s3wp"><g><path d="M 345,420 L 315,490" fill="none" stroke="#a0a0a0" stroke-width="1.5" stroke-linecap="round" stroke-linejoin="round"/></g></g><g id="3wc0ahp5no"><g><path d="M 195.1,404.95 L 215,490" fill="none" stroke="#a0a0a0" stroke-width="1.5" stroke-linecap="round" stroke-linejoin="round"/></g></g><g id="801mk3h0zl"><g transform="translate(110 650)"><ellipse cx="50" cy="25" rx="50" ry="25" fill="rgba(255,255,255,1)" stroke="#f6902a" stroke-width="1.5" stroke-linecap="round" stroke-linejoin="round"/></g><g transform="translate(125, 665.5) rotate(0, 35, 9.5)" width="70" height="19"><text text-decoration="underline" x="2.5" fill="rgb(75, 75, 75)" font-size="10pt" font-family="Lato"  y="17">Hospital&#160;</text><text text-decoration="underline" x="55.5" fill="rgb(75, 75, 75)" font-size="10pt" font-family="Lato"  y="17">Id</text><text text-decoration="none" x="67.5" fill="#4b4b4b" font-size="10pt" font-family="noto_regular"  y="17"></text></g></g><g id="270fjur5at"><g><path d="M 210,675 L 310,730" fill="none" stroke="#a0a0a0" stroke-width="1.5" stroke-linecap="round" stroke-linejoin="round"/></g></g><g id="1kg3sne4iw"><g transform="translate(470.29999999999995 759.9)"><ellipse cx="65.04999995231628" cy="34.99999940395355" rx="65.04999995231628" ry="34.99999940395355" fill="rgba(255,255,255,1)" stroke="#f6902a" stroke-width="1.5" stroke-linecap="round" stroke-linejoin="round"/></g><g transform="translate(511.84999995231624, 785.3999994039535) rotate(0, 23.5, 9.5)" width="47" height="19"><text text-decoration="underline" x="2" fill="rgb(75, 75, 75)" font-size="10pt" font-family="Lato"  y="17">PlaceId</text><text text-decoration="none" x="45" fill="#4b4b4b" font-size="10pt" font-family="noto_regular"  y="17"></text></g></g><g id="n82y5te1ck"><g transform="translate(835 840)"><ellipse cx="50" cy="25" rx="50" ry="25" fill="rgba(255,255,255,1)" stroke="#f6902a" stroke-width="1.5" stroke-linecap="round" stroke-linejoin="round"/></g><g transform="translate(848, 855.5) rotate(0, 37, 9.5)" width="74" height="19"><text text-decoration="none" x="3" fill="rgb(75, 75, 75)" font-size="10pt" font-family="Lato"  y="17">Description</text><text text-decoration="none" x="71" fill="#4b4b4b" font-size="10pt" font-family="noto_regular"  y="17"></text></g></g><g id="2pa0lh8ams"><g><path d="M 600.3,794.9 L 695,890" fill="none" stroke="#a0a0a0" stroke-width="1.5" stroke-linecap="round" stroke-linejoin="round"/></g></g><g id="27c2p8vxta"><g><path d="M 835,865 L 745,915" fill="none" stroke="#a0a0a0" stroke-width="1.5" stroke-linecap="round" stroke-linejoin="round"/></g></g><g id="7rtrax4yhf"><g transform="translate(490 370)"><ellipse cx="50" cy="25" rx="50" ry="25" fill="rgba(255,255,255,1)" stroke="#f6902a" stroke-width="1.5" stroke-linecap="round" stroke-linejoin="round"/></g><g transform="translate(519, 385.5) rotate(0, 21, 9.5)" width="42" height="19"><text text-decoration="underline" x="2" fill="rgb(75, 75, 75)" font-size="10pt" font-family="Lato"  y="17">City&#160;</text><text text-decoration="underline" x="28" fill="rgb(75, 75, 75)" font-size="10pt" font-family="Lato"  y="17">Id</text><text text-decoration="none" x="40" fill="#4b4b4b" font-size="10pt" font-family="noto_regular"  y="17"></text></g></g><g id="11j2r1hptv"><g transform="translate(740 380)"><ellipse cx="50" cy="25" rx="50" ry="25" fill="rgba(255,255,255,1)" stroke="#f6902a" stroke-width="1.5" stroke-linecap="round" stroke-linejoin="round"/></g><g transform="translate(755.5, 395.5) rotate(0, 34.5, 9.5)" width="69" height="19"><text text-decoration="none" x="3.5" fill="rgb(75, 75, 75)" font-size="10pt" font-family="Lato"  y="17">City&#160;</text><text text-decoration="none" x="29.5" fill="rgb(75, 75, 75)" font-size="10pt" font-family="Lato"  y="17">Name</text><text text-decoration="none" x="65.5" fill="#4b4b4b" font-size="10pt" font-family="noto_regular"  y="17"></text></g></g><g id="2pk995p3ye"><g><path d="M 570,415 L 695,575" fill="none" stroke="#a0a0a0" stroke-width="1.5" stroke-linecap="round" stroke-linejoin="round"/></g></g><g id="1jnpi0c5as"><g><path d="M 760,425 L 695,575" fill="none" stroke="#a0a0a0" stroke-width="1.5" stroke-linecap="round" stroke-linejoin="round"/></g></g><g id="11fkcf79dw"><g transform="translate(510 690)"><path d="M 104.99999761581421,19.999998807907104 L 52.499998807907104,39.99999761581421 L 0,19.999998807907104 L 52.499998807907104,0 L 104.99999761581421,19.999998807907104 L 104.99999761581421,19.999998807907104 Z" fill="rgba(255,255,255,1)" stroke="#75c19b" stroke-width="1.5" stroke-linecap="round" stroke-linejoin="round"/></g><g transform="translate(527.9999988079071, 700.4999988079071) rotate(0, 34.5, 9.5)" width="69" height="19"><text text-decoration="none" x="3.5" fill="rgb(75, 75, 75)" font-size="10pt" font-family="Lato"  y="17">Situates&#160;</text><text text-decoration="none" x="54.5" fill="rgb(75, 75, 75)" font-size="10pt" font-family="Lato"  y="17">in</text><text text-decoration="none" x="65.5" fill="#4b4b4b" font-size="10pt" font-family="noto_regular"  y="17"></text></g></g><g id="1mzfs9tvwm"><mask id="c5451" x="347" y="697" width="176" height="71" maskUnits="userSpaceOnUse"><rect x="347" y="697" width="176" height="71" fill="white" /><rect x="427.5" y="712.5" width="15" height="40" fill="black" /><rect x="427.5" y="712.5" width="15" height="40" fill="black" /></mask><g mask="url(#c5451)"><path d="M 510,710 L 435,710 L 435,732.5 L 435,755 L 360,755" fill="none" stroke="#a0a0a0" stroke-width="1.5" stroke-linecap="round" stroke-linejoin="round"/></g><g transform="translate(430.5, 715.5)" width="9" height="34"><text text-decoration="none" x="0" fill="rgb(0, 0, 0)" font-size="9pt" font-family="Lato"  y="13">N</text><text text-decoration="none" x="9" fill="rgb(0, 0, 0)" font-size="9pt" font-family="Lato"  y="13"></text><text text-decoration="none" x="4.5" fill="#4b4b4b" font-size="10pt" font-family="noto_regular"  y="35"></text></g><g transform="translate(430.5, 715.5)" width="9" height="34"><text text-decoration="none" x="0" fill="rgb(0, 0, 0)" font-size="9pt" font-family="Lato"  y="13">N</text><text text-decoration="none" x="9" fill="rgb(0, 0, 0)" font-size="9pt" font-family="Lato"  y="13"></text><text text-decoration="none" x="4.5" fill="#4b4b4b" font-size="10pt" font-family="noto_regular"  y="35"></text></g></g><g id="2ejv4w1n3w"><mask id="5ae09" x="599.4999988079071" y="587" width="58.500001192092896" height="136" maskUnits="userSpaceOnUse"><rect x="599.4999988079071" y="587" width="58.500001192092896" height="136" fill="white" /><rect x="605.4999988079071" y="619.5" width="14" height="41" fill="black" /><rect x="605.4999988079071" y="619.5" width="14" height="41" fill="black" /></mask><g mask="url(#5ae09)"><path d="M 615,710 L 612.4999988079071,710 L 612.4999988079071,655 L 612.4999988079071,600 L 645,600" fill="none" stroke="#a0a0a0" stroke-width="1.5" stroke-linecap="round" stroke-linejoin="round"/></g><g transform="translate(608.4999988079071, 622.5)" width="8" height="35"><text text-decoration="none" x="0.5" fill="rgb(75, 75, 75)" font-size="10pt" font-family="Lato"  y="14">1</text><text text-decoration="none" x="7.5" fill="rgb(75, 75, 75)" font-size="10pt" font-family="Lato"  y="14"></text><text text-decoration="none" x="4" fill="#4b4b4b" font-size="10pt" font-family="noto_regular"  y="36"></text></g><g transform="translate(608.4999988079071, 622.5)" width="8" height="35"><text text-decoration="none" x="0.5" fill="rgb(75, 75, 75)" font-size="10pt" font-family="Lato"  y="14">1</text><text text-decoration="none" x="7.5" fill="rgb(75, 75, 75)" font-size="10pt" font-family="Lato"  y="14"></text><text text-decoration="none" x="4" fill="#4b4b4b" font-size="10pt" font-family="noto_regular"  y="36"></text></g></g><g id="1g644winc0"><g transform="translate(630 700)"><path d="M 130,30 L 65,60 L 0,30 L 65,0 L 130,30 L 130,30 Z" fill="rgba(255,255,255,1)" stroke="#75c19b" stroke-width="1.5" stroke-linecap="round" stroke-linejoin="round"/></g><g transform="translate(682.5, 720.5) rotate(0, 12.5, 9.5)" width="25" height="19"><text text-decoration="none" x="1" fill="rgb(75, 75, 75)" font-size="10pt" font-family="Lato"  y="17">Has</text><text text-decoration="none" x="24" fill="#4b4b4b" font-size="10pt" font-family="noto_regular"  y="17"></text></g></g><g id="16jssg0dlk"><mask id="82279" x="682" y="717" width="26" height="186" maskUnits="userSpaceOnUse"><rect x="682" y="717" width="26" height="186" fill="white" /><rect x="687" y="797.5" width="16" height="25" fill="black" /><rect x="687" y="797.5" width="16" height="25" fill="black" /></mask><g mask="url(#82279)"><path d="M 695,730 L 695,885 L 695,885 L 695,885 L 695,890" fill="none" stroke="#a0a0a0" stroke-width="1.5" stroke-linecap="round" stroke-linejoin="round"/></g><g transform="translate(690, 800.5)" width="10" height="19"><text text-decoration="none" x="0" fill="rgb(75, 75, 75)" font-weight="bold" font-size="9pt" font-family="Arial"  y="17">N</text><text text-decoration="none" x="10" fill="#4b4b4b" font-size="10pt" font-family="noto_regular"  y="17"></text></g><g transform="translate(690, 800.5)" width="10" height="19"><text text-decoration="none" x="0" fill="rgb(75, 75, 75)" font-weight="bold" font-size="9pt" font-family="Arial"  y="17">N</text><text text-decoration="none" x="10" fill="#4b4b4b" font-size="10pt" font-family="noto_regular"  y="17"></text></g></g><g id="6rp1uefqte"><mask id="8239b" x="682" y="612" width="26" height="101" maskUnits="userSpaceOnUse"><rect x="682" y="612" width="26" height="101" fill="white" /><rect x="688" y="650" width="14" height="25" fill="black" /><rect x="688" y="650" width="14" height="25" fill="black" /></mask><g mask="url(#8239b)"><path d="M 695,700 L 695,662.5 L 695,662.5 L 695,662.5 L 695,625" fill="none" stroke="#a0a0a0" stroke-width="1.5" stroke-linecap="round" stroke-linejoin="round"/></g><g transform="translate(691, 653)" width="8" height="19"><text text-decoration="none" x="0.5" fill="rgb(0, 0, 0)" font-size="9pt" font-family="Lato"  y="17">1</text><text text-decoration="none" x="7.5" fill="#4b4b4b" font-size="10pt" font-family="noto_regular"  y="17"></text></g><g transform="translate(691, 653)" width="8" height="19"><text text-decoration="none" x="0.5" fill="rgb(0, 0, 0)" font-size="9pt" font-family="Lato"  y="17">1</text><text text-decoration="none" x="7.5" fill="#4b4b4b" font-size="10pt" font-family="noto_regular"  y="17"></text></g></g><g id="2ncq12ts9v"><g transform="translate(285 570)"><path d="M 130,30 L 65,60 L 0,30 L 65,0 L 130,30 L 130,30 Z" fill="rgba(255,255,255,1)" stroke="#75c19b" stroke-width="1.5" stroke-linecap="round" stroke-linejoin="round"/></g><g transform="translate(334, 590.5) rotate(0, 16, 9.5)" width="32" height="19"><text text-decoration="none" x="0" fill="rgb(75, 75, 75)" font-size="10pt" font-family="Lato"  y="17">From</text><text text-decoration="none" x="32" fill="#4b4b4b" font-size="10pt" font-family="noto_regular"  y="17"></text></g></g><g id="1om0fjt64k"><mask id="9bd54" x="252" y="502" width="46" height="111" maskUnits="userSpaceOnUse"><rect x="252" y="502" width="46" height="111" fill="white" /><rect x="257" y="555" width="16" height="25" fill="black" /><rect x="257" y="555" width="16" height="25" fill="black" /><rect x="257" y="555" width="16" height="25" fill="black" /></mask><g mask="url(#9bd54)"><path d="M 265,515 L 265,600 L 285,600" fill="none" stroke="#a0a0a0" stroke-width="1.5" stroke-linecap="round" stroke-linejoin="round"/></g><g transform="translate(260, 558)" width="10" height="19"><text text-decoration="none" x="0" fill="rgb(75, 75, 75)" font-weight="bold" font-size="9pt" font-family="Arial"  y="17">N</text><text text-decoration="none" x="10" fill="#4b4b4b" font-size="10pt" font-family="noto_regular"  y="17"></text></g><g transform="translate(260, 558)" width="10" height="19"><text text-decoration="none" x="0" fill="rgb(75, 75, 75)" font-weight="bold" font-size="9pt" font-family="Arial"  y="17">N</text><text text-decoration="none" x="10" fill="#4b4b4b" font-size="10pt" font-family="noto_regular"  y="17"></text></g><g transform="translate(260, 558)" width="10" height="19"><text text-decoration="none" x="0" fill="rgb(75, 75, 75)" font-weight="bold" font-size="9pt" font-family="Arial"  y="17">N</text><text text-decoration="none" x="10" fill="#4b4b4b" font-size="10pt" font-family="noto_regular"  y="17"></text></g></g><g id="oaseua8xxn"><g transform="translate(895.05 475)"><path d="M 130,30 L 65,60 L 0,30 L 65,0 L 130,30 L 130,30 Z" fill="rgba(255,255,255,1)" stroke="#75c19b" stroke-width="1.5" stroke-linecap="round" stroke-linejoin="round"/></g><g transform="translate(948.55, 495.5) rotate(0, 11.5, 9.5)" width="23" height="19"><text text-decoration="none" x="1" fill="rgb(75, 75, 75)" font-size="10pt" font-family="Lato"  y="17">has</text><text text-decoration="none" x="22" fill="#4b4b4b" font-size="10pt" font-family="noto_regular"  y="17"></text></g></g><g id="22qswq5u1b"><mask id="31a1a" x="947.05" y="442" width="145.9000000000001" height="46" maskUnits="userSpaceOnUse"><rect x="947.05" y="442" width="145.9000000000001" height="46" fill="white" /><rect x="1012" y="452.5" width="16" height="25" fill="black" /><rect x="1012" y="452.5" width="16" height="25" fill="black" /></mask><g mask="url(#31a1a)"><path d="M 960.05,475 L 960.05,465 L 1020,465 L 1079.95,465 L 1079.95,455" fill="none" stroke="#a0a0a0" stroke-width="1.5" stroke-linecap="round" stroke-linejoin="round"/></g><g transform="translate(1015, 455.5)" width="10" height="19"><text text-decoration="none" x="0" fill="rgb(75, 75, 75)" font-weight="bold" font-size="9pt" font-family="Arial"  y="17">N</text><text text-decoration="none" x="10" fill="#4b4b4b" font-size="10pt" font-family="noto_regular"  y="17"></text></g><g transform="translate(1015, 455.5)" width="10" height="19"><text text-decoration="none" x="0" fill="rgb(75, 75, 75)" font-weight="bold" font-size="9pt" font-family="Arial"  y="17">N</text><text text-decoration="none" x="10" fill="#4b4b4b" font-size="10pt" font-family="noto_regular"  y="17"></text></g></g><g id="1yo621jnb3"><mask id="79880" x="396.90909090909105" y="586.5" width="261.09090909090895" height="26.5" maskUnits="userSpaceOnUse"><rect x="396.90909090909105" y="586.5" width="261.09090909090895" height="26.5" fill="white" /><rect x="517.409090909091" y="587.5" width="14" height="25" fill="black" /><rect x="516.409090909091" y="587.5" width="16" height="25" fill="black" /><rect x="517.409090909091" y="587.5" width="14" height="25" fill="black" /></mask><g mask="url(#79880)"><path d="M 415,600 L 409.90909090909105,600 L 409.90909090909105,599.75 L 409.90909090909105,599.5 L 458.9545454545455,599.5 L 508,599.5 L 508,599.75 L 508,600 L 645,600" fill="none" stroke="#a0a0a0" stroke-width="1.5" stroke-linecap="round" stroke-linejoin="round"/></g><g transform="translate(520.409090909091, 590.5)" width="8" height="19"><text text-decoration="none" x="0.5" fill="rgb(75, 75, 75)" font-weight="bold" font-size="9pt" font-family="Arial"  y="17">1</text><text text-decoration="none" x="7.5" fill="#4b4b4b" font-size="10pt" font-family="noto_regular"  y="17"></text></g><g transform="translate(519.409090909091, 590.5)" width="10" height="19"><text text-decoration="none" x="0" fill="rgb(75, 75, 75)" font-weight="bold" font-size="9pt" font-family="Arial"  y="17">N</text><text text-decoration="none" x="10" fill="#4b4b4b" font-size="10pt" font-family="noto_regular"  y="17"></text></g><g transform="translate(520.409090909091, 590.5)" width="8" height="19"><text text-decoration="none" x="0.5" fill="rgb(75, 75, 75)" font-weight="bold" font-size="9pt" font-family="Arial"  y="17">1</text><text text-decoration="none" x="7.5" fill="#4b4b4b" font-size="10pt" font-family="noto_regular"  y="17"></text></g></g><g id="2lg4r1yaab"><g transform="translate(395 995)"><path d="M 130,30 L 65,60 L 0,30 L 65,0 L 130,30 L 130,30 Z" fill="rgba(255,255,255,1)" stroke="#75c19b" stroke-width="1.5" stroke-linecap="round" stroke-linejoin="round"/></g><g transform="translate(421.5, 1015.5) rotate(0, 38.5, 9.5)" width="77" height="19"><text text-decoration="none" x="4" fill="rgb(75, 75, 75)" font-size="10pt" font-family="Lato"  y="17">Categorizes</text><text text-decoration="none" x="73" fill="#4b4b4b" font-size="10pt" font-family="noto_regular"  y="17"></text></g></g><g id="h6mvv744kz"><mask id="883bd" x="297" y="1012" width="111" height="26" maskUnits="userSpaceOnUse"><rect x="297" y="1012" width="111" height="26" fill="white" /><rect x="341.9583333333333" y="1012.5" width="14" height="25" fill="black" /><rect x="341.9583333333333" y="1012.5" width="14" height="25" fill="black" /><rect x="341.9583333333333" y="1012.5" width="14" height="25" fill="black" /></mask><g mask="url(#883bd)"><path d="M 310,1025 L 370,1025 L 370,1025 L 370,1025 L 395,1025" fill="none" stroke="#a0a0a0" stroke-width="1.5" stroke-linecap="round" stroke-linejoin="round"/></g><g transform="translate(344.9583333333333, 1015.5)" width="8" height="19"><text text-decoration="none" x="0.5" fill="rgb(0, 0, 0)" font-size="9pt" font-family="Lato"  y="17">1</text><text text-decoration="none" x="7.5" fill="#4b4b4b" font-size="10pt" font-family="noto_regular"  y="17"></text></g><g transform="translate(344.9583333333333, 1015.5)" width="8" height="19"><text text-decoration="none" x="0.5" fill="rgb(0, 0, 0)" font-size="9pt" font-family="Lato"  y="17">1</text><text text-decoration="none" x="7.5" fill="#4b4b4b" font-size="10pt" font-family="noto_regular"  y="17"></text></g><g transform="translate(344.9583333333333, 1015.5)" width="8" height="19"><text text-decoration="none" x="0.5" fill="rgb(0, 0, 0)" font-size="9pt" font-family="Lato"  y="17">1</text><text text-decoration="none" x="7.5" fill="#4b4b4b" font-size="10pt" font-family="noto_regular"  y="17"></text></g></g><g id="2amq46z70n"><mask id="08199" x="447" y="902" width="211" height="106" maskUnits="userSpaceOnUse"><rect x="447" y="902" width="211" height="106" fill="white" /><rect x="504.5" y="902.5" width="16" height="25" fill="black" /><rect x="504.5" y="902.5" width="16" height="25" fill="black" /></mask><g mask="url(#08199)"><path d="M 460,995 L 460,915 L 645,915" fill="none" stroke="#a0a0a0" stroke-width="1.5" stroke-linecap="round" stroke-linejoin="round"/></g><g transform="translate(507.5, 905.5)" width="10" height="19"><text text-decoration="none" x="0" fill="rgb(75, 75, 75)" font-weight="bold" font-size="9pt" font-family="Arial"  y="17">N</text><text text-decoration="none" x="10" fill="#4b4b4b" font-size="10pt" font-family="noto_regular"  y="17"></text></g><g transform="translate(507.5, 905.5)" width="10" height="19"><text text-decoration="none" x="0" fill="rgb(75, 75, 75)" font-weight="bold" font-size="9pt" font-family="Arial"  y="17">N</text><text text-decoration="none" x="10" fill="#4b4b4b" font-size="10pt" font-family="noto_regular"  y="17"></text></g></g><g id="10m75cxabn"><g transform="translate(70 795)"><ellipse cx="65.04999995231628" cy="32.499998807907104" rx="65.04999995231628" ry="32.499998807907104" fill="rgba(255,255,255,1)" stroke="#f6902a" stroke-width="1.5" stroke-linecap="round" stroke-linejoin="round"/></g><g transform="translate(86.54999995231628, 817.9999988079071) rotate(0, 48.5, 9.5)" width="97" height="19"><text text-decoration="none" x="4" fill="rgb(75, 75, 75)" font-size="10pt" font-family="Lato"  y="17">Hospital&#160;</text><text text-decoration="none" x="57" fill="rgb(75, 75, 75)" font-size="10pt" font-family="Lato"  y="17">Name</text><text text-decoration="none" x="93" fill="#4b4b4b" font-size="10pt" font-family="noto_regular"  y="17"></text></g></g><g id="8kmgdsmwar"><g><path d="M 200,825 L 310,780" fill="none" stroke="#a0a0a0" stroke-width="1.5" stroke-linecap="round" stroke-linejoin="round"/></g></g><g id="27481m2kc5"><g transform="translate(885 620)"><ellipse cx="50" cy="25" rx="50" ry="25" fill="rgba(255,255,255,1)" stroke="#f6902a" stroke-width="1.5" stroke-linecap="round" stroke-linejoin="round"/></g><g transform="translate(890.5, 635.5) rotate(0, 44.5, 9.5)" width="89" height="19"><text text-decoration="none" x="3.5" fill="rgb(75, 75, 75)" font-size="10pt" font-family="Lato"  y="17">Station&#160;</text><text text-decoration="none" x="49.5" fill="rgb(75, 75, 75)" font-size="10pt" font-family="Lato"  y="17">Name</text><text text-decoration="none" x="85.5" fill="#4b4b4b" font-size="10pt" font-family="noto_regular"  y="17"></text></g></g><g id="28q4u944m3"><g transform="translate(1150 575)"><ellipse cx="80.04341721534729" cy="44.999998807907104" rx="80.04341721534729" ry="44.999998807907104" fill="rgba(255,255,255,1)" stroke="#f6902a" stroke-width="1.5" stroke-linecap="round" stroke-linejoin="round"/></g><g transform="translate(1199.0434172153473, 610.4999988079071) rotate(0, 31, 9.5)" width="62" height="19"><text text-decoration="underline" x="2" fill="rgb(75, 75, 75)" font-size="10pt" font-family="Lato"  y="17">Station&#160;</text><text text-decoration="underline" x="48" fill="rgb(75, 75, 75)" font-size="10pt" font-family="Lato"  y="17">Id</text><text text-decoration="none" x="60" fill="#4b4b4b" font-size="10pt" font-family="noto_regular"  y="17"></text></g></g><g id="2lk9o39shd"><g><path d="M 1150,620 L 1025,730" fill="none" stroke="#a0a0a0" stroke-width="1.5" stroke-linecap="round" stroke-linejoin="round"/></g></g><g id="1xfy9qnmpj"><g><path d="M 965,665 L 1025,730" fill="none" stroke="#a0a0a0" stroke-width="1.5" stroke-linecap="round" stroke-linejoin="round"/></g></g><g id="1jo5z5gctu"><g transform="translate(785 720)"><path d="M 130,30 L 65,60 L 0,30 L 65,0 L 130,30 L 130,30 Z" fill="rgba(255,255,255,1)" stroke="#75c19b" stroke-width="1.5" stroke-linecap="round" stroke-linejoin="round"/></g><g transform="translate(838.5, 740.5) rotate(0, 11.5, 9.5)" width="23" height="19"><text text-decoration="none" x="1" fill="rgb(75, 75, 75)" font-size="10pt" font-family="Lato"  y="17">has</text><text text-decoration="none" x="22" fill="#4b4b4b" font-size="10pt" font-family="noto_regular"  y="17"></text></g></g><g id="26vzbb6llx"><mask id="d64e5" x="902" y="737" width="86" height="31" maskUnits="userSpaceOnUse"><rect x="902" y="737" width="86" height="31" fill="white" /><rect x="937" y="740" width="16" height="25" fill="black" /><rect x="937" y="740" width="16" height="25" fill="black" /></mask><g mask="url(#d64e5)"><path d="M 915,750 L 945,750 L 945,752.5 L 945,755 L 975,755" fill="none" stroke="#a0a0a0" stroke-width="1.5" stroke-linecap="round" stroke-linejoin="round"/></g><g transform="translate(940, 743)" width="10" height="19"><text text-decoration="none" x="0" fill="rgb(75, 75, 75)" font-weight="bold" font-size="9pt" font-family="Arial"  y="17">N</text><text text-decoration="none" x="10" fill="#4b4b4b" font-size="10pt" font-family="noto_regular"  y="17"></text></g><g transform="translate(940, 743)" width="10" height="19"><text text-decoration="none" x="0" fill="rgb(75, 75, 75)" font-weight="bold" font-size="9pt" font-family="Arial"  y="17">N</text><text text-decoration="none" x="10" fill="#4b4b4b" font-size="10pt" font-family="noto_regular"  y="17"></text></g></g><g id="848ciqrc9s"><mask id="a06f7" x="732" y="587" width="131" height="146" maskUnits="userSpaceOnUse"><rect x="732" y="587" width="131" height="146" fill="white" /><rect x="843" y="595" width="14" height="25" fill="black" /><rect x="843" y="595" width="14" height="25" fill="black" /></mask><g mask="url(#a06f7)"><path d="M 850,720 L 850,600 L 745,600" fill="none" stroke="#a0a0a0" stroke-width="1.5" stroke-linecap="round" stroke-linejoin="round"/></g><g transform="translate(846, 598)" width="8" height="19"><text text-decoration="none" x="0.5" fill="rgb(0, 0, 0)" font-size="9pt" font-family="Lato"  y="17">1</text><text text-decoration="none" x="7.5" fill="#4b4b4b" font-size="10pt" font-family="noto_regular"  y="17"></text></g><g transform="translate(846, 598)" width="8" height="19"><text text-decoration="none" x="0.5" fill="rgb(0, 0, 0)" font-size="9pt" font-family="Lato"  y="17">1</text><text text-decoration="none" x="7.5" fill="#4b4b4b" font-size="10pt" font-family="noto_regular"  y="17"></text></g></g><g id="8v6crk43qu"><g transform="translate(349.75 825)"><ellipse cx="62.550002336502075" cy="30.000001192092896" rx="62.550002336502075" ry="30.000001192092896" fill="rgba(255,255,255,1)" stroke="#f6902a" stroke-width="1.5" stroke-linecap="round" stroke-linejoin="round"/></g><g transform="translate(375.3000023365021, 845.5000011920929) rotate(0, 37, 9.5)" width="74" height="19"><text text-decoration="none" x="3.5" fill="rgb(75, 75, 75)" font-size="10pt" font-family="Lato"  y="17">PlaceName</text><text text-decoration="none" x="70.5" fill="#4b4b4b" font-size="10pt" font-family="noto_regular"  y="17"></text></g></g><g id="16oyktca1k"><g><path d="M 474.75,855 L 695,890" fill="none" stroke="#a0a0a0" stroke-width="1.5" stroke-linecap="round" stroke-linejoin="round"/></g></g><g id="22spe4xhql"><g transform="translate(1204.95 290)"><ellipse cx="50" cy="25" rx="50" ry="25" fill="rgba(255,255,255,1)" stroke="#f6902a" stroke-width="1.5" stroke-linecap="round" stroke-linejoin="round"/></g><g transform="translate(1229.95, 305.5) rotate(0, 25, 9.5)" width="50" height="19"><text text-decoration="none" x="1.5" fill="rgb(75, 75, 75)" font-size="10pt" font-family="Lato"  y="17">Contact</text><text text-decoration="none" x="48.5" fill="#4b4b4b" font-size="10pt" font-family="noto_regular"  y="17"></text></g></g><g id="9x5wgv1323"><g><path d="M 1204.95,315 L 1079.95,405" fill="none" stroke="#a0a0a0" stroke-width="1.5" stroke-linecap="round" stroke-linejoin="round"/></g></g><g id="7s6pzccq7b"><g transform="translate(29.950000000000003 730)"><ellipse cx="49.900054931640625" cy="25" rx="49.900054931640625" ry="25" fill="rgba(255,255,255,1)" stroke="#f6902a" stroke-width="1.5" stroke-linecap="round" stroke-linejoin="round"/></g><g transform="translate(54.850054931640614, 745.5) rotate(0, 25, 9.5)" width="50" height="19"><text text-decoration="none" x="1.5" fill="rgb(75, 75, 75)" font-size="10pt" font-family="Lato"  y="17">Contact</text><text text-decoration="none" x="48.5" fill="#4b4b4b" font-size="10pt" font-family="noto_regular"  y="17"></text></g></g><g id="23fx938cq4"><g><path d="M 129.95,755 L 260,755" fill="none" stroke="#a0a0a0" stroke-width="1.5" stroke-linecap="round" stroke-linejoin="round"/></g></g><g id="6f90ck9ihv"><g transform="translate(999.95 575)"><ellipse cx="49.900054931640625" cy="25" rx="49.900054931640625" ry="25" fill="rgba(255,255,255,1)" stroke="#f6902a" stroke-width="1.5" stroke-linecap="round" stroke-linejoin="round"/></g><g transform="translate(1024.8500549316407, 590.5) rotate(0, 25, 9.5)" width="50" height="19"><text text-decoration="none" x="1.5" fill="rgb(75, 75, 75)" font-size="10pt" font-family="Lato"  y="17">Contact</text><text text-decoration="none" x="48.5" fill="#4b4b4b" font-size="10pt" font-family="noto_regular"  y="17"></text></g></g><g id="30ttrjyz31"><g><path d="M 1034.95,625 L 1025,730" fill="none" stroke="#a0a0a0" stroke-width="1.5" stroke-linecap="round" stroke-linejoin="round"/></g></g><g id="dey790xuah"><mask id="3a057" x="732" y="492" width="176.04999999999995" height="121" maskUnits="userSpaceOnUse"><rect x="732" y="492" width="176.04999999999995" height="121" fill="white" /><rect x="813.025" y="532.5" width="14" height="40" fill="black" /><rect x="813.025" y="532.5" width="14" height="40" fill="black" /></mask><g mask="url(#3a057)"><path d="M 895.05,505 L 820.025,505 L 820.025,552.5 L 820.025,600 L 745,600" fill="none" stroke="#a0a0a0" stroke-width="1.5" stroke-linecap="round" stroke-linejoin="round"/></g><g transform="translate(816.025, 535.5)" width="8" height="34"><text text-decoration="none" x="0.5" fill="rgb(0, 0, 0)" font-size="9pt" font-family="Lato"  y="13">1</text><text text-decoration="none" x="7.5" fill="rgb(0, 0, 0)" font-size="9pt" font-family="Lato"  y="13"></text><text text-decoration="none" x="4" fill="#4b4b4b" font-size="10pt" font-family="noto_regular"  y="35"></text></g><g transform="translate(816.025, 535.5)" width="8" height="34"><text text-decoration="none" x="0.5" fill="rgb(0, 0, 0)" font-size="9pt" font-family="Lato"  y="13">1</text><text text-decoration="none" x="7.5" fill="rgb(0, 0, 0)" font-size="9pt" font-family="Lato"  y="13"></text><text text-decoration="none" x="4" fill="#4b4b4b" font-size="10pt" font-family="noto_regular"  y="35"></text></g></g><g id="w45dfhyr6x"><g transform="translate(890 1005)"><ellipse cx="50" cy="25" rx="50" ry="25" fill="rgba(255,255,255,1)" stroke="#f6902a" stroke-width="1.5" stroke-linecap="round" stroke-linejoin="round"/></g><g transform="translate(906, 1020.5) rotate(0, 34, 9.5)" width="68" height="19"><text text-decoration="none" x="3" fill="rgb(75, 75, 75)" font-size="10pt" font-family="Lato"  y="17">Picture&#160;</text><text text-decoration="none" x="48" fill="rgb(75, 75, 75)" font-size="10pt" font-family="Lato"  y="17">Url</text><text text-decoration="none" x="65" fill="#4b4b4b" font-size="10pt" font-family="noto_regular"  y="17"></text></g></g><g id="1j5ojwe3xa"><g><path d="M 745,915 L 925,1004.9999999999999" fill="none" stroke="#a0a0a0" stroke-width="1.5" stroke-linecap="round" stroke-linejoin="round"/></g></g></svg>